<svg width="36" height="36" xmlns="http://www.w3.org/2000/svg"><g fill="none" fill-rule="evenodd"><path d="M18 7.793a17.918 17.918 0 0 1 9-2.409c1.495 0 2.948.184 4.337.528A17.953 17.953 0 0 0 18 0 17.953 17.953 0 0 0 4.663 5.912 18.035 18.035 0 0 1 9 5.384c3.279 0 6.352.878 9 2.41" fill="#FFC600"/><path d="M.711 12.977A18.004 18.004 0 0 0 0 18c0 8.446 5.817 15.532 13.663 17.473a17.932 17.932 0 0 1-4.66-11.926A18.042 18.042 0 0 1 .71 12.977" fill="#FF4807"/><path d="M9.002 23.547 9 23.384c0-6.662 3.62-12.479 9-15.59a17.914 17.914 0 0 0-9-2.41c-1.495 0-2.948.184-4.337.528a17.973 17.973 0 0 0-3.952 7.065 18.043 18.043 0 0 0 8.291 10.57" fill="#FF97B1"/><path d="M26.998 23.547a17.932 17.932 0 0 1-4.661 11.926C30.183 33.532 36 26.446 36 18c0-1.744-.249-3.428-.711-5.023a18.043 18.043 0 0 1-8.291 10.57" fill="#0A78FF"/><path d="M27 5.384c-3.279 0-6.352.877-9 2.41 5.38 3.111 9 8.928 9 15.59l-.002.163a18.042 18.042 0 0 0 8.291-10.57 17.97 17.97 0 0 0-3.952-7.065A18.035 18.035 0 0 0 27 5.384" fill="#00B450"/><path d="M18 25.955c-3.278 0-6.35-.877-8.998-2.408a17.932 17.932 0 0 0 4.661 11.926c1.39.343 2.842.527 4.337.527 1.495 0 2.948-.184 4.337-.527a17.932 17.932 0 0 0 4.661-11.926A17.918 17.918 0 0 1 18 25.955" fill="#BF17A7"/><path d="m9 23.384.002.163A17.918 17.918 0 0 0 18 25.955c3.278 0 6.35-.877 8.998-2.408l.002-.163c0-6.662-3.62-12.478-9-15.59-5.38 3.112-9 8.928-9 15.59" fill="#002D72"/></g></svg>